<svg width="25" height="26" viewBox="0 0 25 26" fill="none" xmlns="http://www.w3.org/2000/svg">
<path d="M11.5247 16.0287L9.62534 17.9281C9.22494 18.3285 8.5884 18.3285 8.17774 17.9383C8.0648 17.8254 7.95187 17.7227 7.83894 17.6098C6.78147 16.5421 5.82667 15.423 4.97454 14.2526C4.13267 13.0822 3.45507 11.9118 2.96227 10.7517C2.47974 9.58127 2.23334 8.4622 2.23334 7.39446C2.23334 6.69633 2.35654 6.029 2.60294 5.413C2.84934 4.78673 3.23947 4.2118 3.7836 3.69847C4.44067 3.05167 5.15934 2.7334 5.91907 2.7334C6.20654 2.7334 6.494 2.795 6.75067 2.9182C7.0176 3.0414 7.25374 3.2262 7.43854 3.49313L9.8204 6.85033C10.0052 7.107 10.1387 7.34313 10.2311 7.569C10.3235 7.7846 10.3748 8.0002 10.3748 8.19527C10.3748 8.44167 10.3029 8.68806 10.1592 8.9242C10.0257 9.16033 9.83067 9.40673 9.58427 9.65313L8.804 10.4642C8.69107 10.5771 8.63974 10.7106 8.63974 10.8749C8.63974 10.957 8.65 11.0289 8.67054 11.111C8.70134 11.1931 8.73214 11.2547 8.75267 11.3163C8.93747 11.6551 9.25574 12.0966 9.70747 12.6305C10.1695 13.1643 10.6623 13.7085 11.1961 14.2526C11.2988 14.3553 11.4117 14.4579 11.5144 14.5606C11.9251 14.961 11.9353 15.6181 11.5247 16.0287Z" fill="white"/>
<path d="M22.7358 19.4991C22.7358 19.7866 22.6845 20.0843 22.5818 20.3718C22.551 20.4539 22.5202 20.5361 22.4792 20.6182C22.3046 20.9878 22.0788 21.3369 21.781 21.6654C21.278 22.2198 20.7236 22.6202 20.0973 22.8769C20.087 22.8769 20.0768 22.8871 20.0665 22.8871C19.4608 23.1335 18.8037 23.267 18.0953 23.267C17.0481 23.267 15.929 23.0206 14.7484 22.5175C13.5677 22.0145 12.387 21.3369 11.2166 20.4847C10.8162 20.187 10.4158 19.8893 10.036 19.571L13.3932 16.2138C13.6806 16.4294 13.9373 16.5937 14.1529 16.7066C14.2042 16.7271 14.2658 16.7579 14.3377 16.7887C14.4198 16.8195 14.502 16.8298 14.5944 16.8298C14.7689 16.8298 14.9024 16.7682 15.0153 16.6553L15.7956 15.8853C16.0522 15.6286 16.2986 15.4335 16.5348 15.3103C16.7709 15.1666 17.007 15.0947 17.2637 15.0947C17.4588 15.0947 17.6641 15.1358 17.89 15.2282C18.1158 15.3206 18.352 15.4541 18.6086 15.6286L22.0069 18.0413C22.2738 18.2261 22.4586 18.4417 22.5716 18.6983C22.6742 18.955 22.7358 19.2117 22.7358 19.4991Z" fill="white"/>
</svg>
