<svg width="100" height="100" viewBox="0 0 100 100" fill="none" xmlns="http://www.w3.org/2000/svg">
<path d="M50 100C22.4308 100 0 77.5692 0 50C0 22.4308 22.4308 0 50 0C77.5692 0 100 22.4308 100 50C100 77.5692 77.5692 100 50 100ZM50 7.69231C26.6692 7.69231 7.69231 26.6692 7.69231 50C7.69231 73.3308 26.6692 92.3077 50 92.3077C73.3308 92.3077 92.3077 73.3308 92.3077 50C92.3077 26.6692 73.3308 7.69231 50 7.69231Z" fill="#212121"/>
<path d="M42.3069 69.2308C41.2915 69.2308 40.3069 68.8232 39.5838 68.1078L24.1992 52.7232C22.6992 51.2232 22.6992 48.7847 24.1992 47.2847C25.6992 45.7847 28.1377 45.7847 29.6377 47.2847L42.1146 59.7616L66.33 32.0847C67.73 30.477 70.1608 30.3155 71.7608 31.7231C73.3608 33.1231 73.5223 35.5539 72.1223 37.1539L45.1992 67.9231C44.4992 68.7231 43.4915 69.2001 42.43 69.2308C42.3915 69.2308 42.3454 69.2308 42.3069 69.2308Z" fill="#212121"/>
</svg>
