<svg width="25" height="21" viewBox="0 0 25 21" fill="none" xmlns="http://www.w3.org/2000/svg">
<path d="M6.39198 11.6081L9.0021 18.8326C9.0021 18.8326 9.32843 19.5085 9.67787 19.5085C10.0273 19.5085 15.2246 14.1016 15.2246 14.1016L21.0042 2.93848L6.48512 9.74326L6.39198 11.6081Z" fill="#C8DAEA"/>
<path d="M9.85277 13.4609L9.35172 18.786C9.35172 18.786 9.14198 20.4177 10.7733 18.786C12.4046 17.1544 13.966 15.8962 13.966 15.8962" fill="#A9C6D8"/>
<path d="M6.43911 11.866L1.07001 10.1167C1.07001 10.1167 0.428339 9.85633 0.634955 9.266C0.677489 9.14427 0.763288 9.04068 1.01996 8.86267C2.20961 8.03345 23.0394 0.546666 23.0394 0.546666C23.0394 0.546666 23.6275 0.348482 23.9744 0.480299C24.0602 0.506862 24.1374 0.555742 24.1981 0.621938C24.2589 0.688134 24.3009 0.769271 24.32 0.857049C24.3575 1.01209 24.3731 1.1716 24.3665 1.33097C24.3649 1.46883 24.3482 1.59662 24.3356 1.797C24.2087 3.84392 20.4122 19.1207 20.4122 19.1207C20.4122 19.1207 20.1851 20.0147 19.3713 20.0453C19.1713 20.0517 18.972 20.0179 18.7854 19.9457C18.5988 19.8735 18.4286 19.7644 18.285 19.6251C16.688 18.2513 11.1682 14.5418 9.94847 13.7259C9.92096 13.7072 9.89779 13.6828 9.88052 13.6543C9.86325 13.6258 9.85229 13.594 9.84837 13.561C9.83132 13.475 9.92482 13.3684 9.92482 13.3684C9.92482 13.3684 19.5363 4.82512 19.792 3.92825C19.8118 3.85877 19.737 3.82448 19.6365 3.85492C18.9982 4.08977 7.93181 11.0782 6.71044 11.8495C6.62252 11.8761 6.5296 11.8818 6.43911 11.866Z" fill="white"/>
</svg>
